Coordinates
version=1
nRows=17
nColumns=36
inDegrees=yes

Units are S.I. units (second, meters, Newtons, ...)
If the header above contains a line with 'inDegrees', this indicates whether rotational values are in degrees (yes) or radians (no).

endheader
time	pelvis_tilt	pelvis_list	pelvis_rotation	pelvis_tx	pelvis_ty	pelvis_tz	hip_flexion_r	hip_adduction_r	hip_rotation_r	knee_angle_r	knee_angle_r_beta	ankle_angle_r	subtalar_angle_r	mtp_angle_r	hip_flexion_l	hip_adduction_l	hip_rotation_l	knee_angle_l	knee_angle_l_beta	ankle_angle_l	subtalar_angle_l	mtp_angle_l	lumbar_extension	lumbar_bending	lumbar_rotation	arm_flex_r	arm_add_r	arm_rot_r	elbow_flex_r	pro_sup_r	arm_flex_l	arm_add_l	arm_rot_l	elbow_flex_l	pro_sup_l
      8.50000000	     -5.59917982	     11.83421970	     19.94635793	      1.52604535	      0.80543275	     -0.08800231	     77.01388468	    -22.15030634	     23.94623125	     40.39675038	      0.70505630	     -1.75129085	      8.24335074	     -7.49999987	     47.43145256	     19.20444917	     -9.16624323	     75.00172221	      1.30902700	     24.57882380	     -7.24045358	     -7.49999987	    -26.99923251	    -24.40301060	    -23.04390143	     52.50380309	     15.15999448	     51.04036990	    107.76556441	     74.10722919	     84.82686369	    -11.08534701	     84.19773890	    124.82351922	     71.43782810
      8.51666670	     -6.27732877	     12.15456852	     20.23771558	      1.52576876	      0.80504049	     -0.08771747	     78.08019415	    -22.45889876	     24.68857381	     40.34945365	      0.70423082	     -1.78587502	      8.85731167	     -7.49999987	     48.20215938	     19.47836724	     -9.51555814	     75.37618801	      1.31556266	     24.73562271	     -6.26823300	     -7.49999987	    -27.11908084	    -25.03910952	    -23.20803829	     52.04198367	     15.20061994	     51.72163877	    108.21364837	     73.22291966	     84.26666087	    -11.23557548	     84.41670042	    124.71669911	     70.24476954
      8.53333330	     -7.02653018	     12.41407122	     20.64403521	      1.52161929	      0.80048419	     -0.09055599	     79.33609923	    -22.85648430	     25.38520482	     40.52709667	      0.70733127	     -1.63256352	      9.64725368	     -7.49999987	     49.26746643	     19.85224761	     -9.84309918	     75.90443328	      1.32478228	     24.65052762	     -5.42880193	     -7.49999987	    -27.07663107	    -25.53887228	    -23.44269561	     52.29429152	     15.15985194	     52.47596043	    108.18024282	     73.59288994	     84.10026994	    -10.60873221	     84.70632858	    124.42076968	     69.98137724
      8.55000000	     -7.75406964	     12.57277474	     20.95415228	      1.52165523	      0.79507983	     -0.08960488	     80.64934871	    -23.02728257	     26.13985256	     40.89846117	      0.71381281	     -1.57893972	     10.23982642	     -7.49999987	     50.56087859	     20.07894749	    -10.22365444	     76.65374749	      1.33786028	     24.74065495	     -4.85036254	     -7.49999987	    -26.85423630	    -26.00530781	    -23.65449699	     52.92458962	     15.11809689	     52.80305161	    108.07207157	     73.25362870	     84.10518718	    -10.67775240	     84.91080908	    123.84891456	     69.08574124
      8.56666670	     -8.32653863	     12.73423965	     21.31043647	      1.52624591	      0.79706609	     -0.08851869	     81.55355232	    -23.37203923	     26.66023901	     40.96482201	      0.71497102	     -1.34419126	     11.19026240	     -7.49999987	     51.38590148	     20.39811126	    -10.33292564	     77.11344733	      1.34588355	     24.99268717	     -4.03733248	     -7.49999987	    -26.76526929	    -26.46707879	    -23.85038088	     52.25704760	     15.16657638	     53.26008146	    107.48172847	     73.59851133	     83.60584871	    -11.14916257	     85.64094689	    123.51968693	     68.79039268
      8.58333330	     -9.02220483	     12.90129433	     21.53807683	      1.52984611	      0.79249134	     -0.09066029	     82.59009051	    -23.53751143	     27.25016790	     41.06615919	      0.71673969	     -1.19957102	     11.80397769	     -7.49999987	     52.15577616	     20.66821429	    -10.59157249	     77.49284957	      1.35250537	     25.34224518	     -3.27121330	     -7.49999987	    -26.35436704	    -27.07896766	    -23.95635980	     51.50401104	     15.19528338	     54.16970006	    107.62294645	     74.00438608	     82.88911443	    -11.34193205	     85.87984743	    123.37532967	     68.37870084
      8.60000000	     -9.73488910	     13.04161050	     21.87273776	      1.53011641	      0.78926003	     -0.09074553	     83.59792595	    -23.73441255	     27.93427894	     41.17947899	      0.71871749	     -1.07994534	     12.32493476	     -7.49999987	     52.89736708	     20.95177661	    -10.86391512	     77.84145543	      1.35858969	     25.43742016	     -2.59762889	     -7.49999987	    -26.07297406	    -27.58968614	    -23.99571749	     50.89692636	     14.97892322	     54.70747748	    107.89176678	     73.58357485	     82.23995452	    -10.99979184	     86.00318587	    123.39797107	     67.34520396
      8.61666670	    -10.60925097	     13.03436511	     22.40078672	      1.52604489	      0.78239073	     -0.08727373	     85.00769758	    -23.86020536	     28.72373058	     41.67051539	      0.72728769	     -1.07321175	     12.57367770	     -7.49999987	     54.32006904	     21.11156075	    -11.25725109	     78.61813067	      1.37214523	     25.64431416	     -2.12016416	     -7.49999987	    -25.76173410	    -28.03710320	    -24.24168170	     51.18037043	     15.12446722	     53.93937509	    108.49235225	     78.86696433	     82.63657094	    -10.50068082	     86.31795094	    123.63459931	     61.51337753
      8.63333330	    -10.95696525	     13.10306585	     22.98572999	      1.52591810	      0.78159220	     -0.08783119	     85.80451316	    -24.21544783	     29.26108235	     42.00494817	      0.73312465	     -1.23655163	     13.06803945	     -7.49999987	     55.15169735	     21.33693312	    -11.45199573	     79.30802312	      1.38418613	     25.56316861	     -1.81356023	     -7.49999987	    -26.05577368	    -28.25328269	    -24.81392795	     51.27149241	     15.03467431	     53.88947217	    108.42662910	     77.60680751	     82.37753973	    -10.25459840	     86.15406664	    123.60905869	     61.42444293
      8.65000000	    -11.43158236	     13.23185654	     23.53888898	      1.52550789	      0.77880470	     -0.08739774	     86.66080446	    -24.58489085	     29.84659370	     42.10176520	      0.73481442	     -1.43496941	     13.57916431	     -7.49999987	     56.01682620	     21.67222431	    -11.69695927	     79.84334700	      1.39352929	     25.27561184	     -1.65649514	     -7.49999987	    -26.11352905	    -28.54191672	    -25.32468975	     51.67448258	     14.98226404	     53.86756305	    108.37748322	     76.72700201	     82.57903111	    -10.10743319	     86.25137722	    123.78942090	     61.31402123
      8.66666670	    -11.74897247	     13.36258923	     24.08761681	      1.52540205	      0.77828509	     -0.08816320	     87.21532220	    -25.00585372	     30.27763604	     42.08906802	      0.73459282	     -1.53614696	     14.12420198	     -7.49999987	     56.61106272	     21.99492230	    -11.89651834	     80.26618556	      1.40090922	     25.00950737	     -1.63767164	     -7.49999987	    -26.29745751	    -28.72890290	    -25.88493854	     51.49658315	     14.89880782	     53.95564534	    107.87267420	     75.59683984	     82.46188961	    -10.06646956	     86.52890515	    123.47578867	     61.21795011
      8.68333330	    -11.99512411	     13.39416864	     24.61840698	      1.52481420	      0.77797323	     -0.08815969	     87.60412300	    -25.41543314	     30.58393761	     42.00675996	      0.73315627	     -1.68579295	     14.66115657	     -7.49999987	     57.13062909	     22.30071508	    -11.92084885	     80.60578095	      1.40683627	     24.79924044	     -1.78826675	     -7.49999987	    -26.52331718	    -28.75322303	    -26.52980730	     51.16362460	     14.90559182	     53.90717971	    107.32931933	     74.55302062	     82.61289070	    -10.34230964	     86.70364231	    123.14179444	     61.10168404
      8.70000000	    -12.20945673	     13.54391429	     25.07884370	      1.52493918	      0.77741446	     -0.08882527	     87.93338740	    -25.86239995	     30.87457068	     41.87513890	      0.73085905	     -1.73622579	     15.35538869	     -7.49999987	     57.41411081	     22.72742833	    -11.93421304	     80.75849753	      1.40950168	     24.44108968	     -2.16916926	     -7.49999987	    -26.57218522	    -28.93265952	    -27.00406649	     51.21452801	     15.10434234	     53.93536624	    107.21368568	     73.66781670	     82.68973629	    -10.47193140	     87.04609912	    123.65143765	     60.91182486
      8.71666670	    -12.37924329	     13.48953353	     25.26612895	      1.52869310	      0.77540467	     -0.08689754	     88.14170541	    -25.89830960	     31.20061886	     41.87946974	      0.73093464	     -1.65831994	     15.57231254	     -7.49999987	     57.65689567	     22.90057704	    -11.81793578	     81.00875996	      1.41386958	     24.60215032	     -2.52304936	     -7.49999987	    -26.30921305	    -29.12207846	    -27.16139991	     50.89702946	     15.36561007	     53.86298980	    107.32843377	     73.70628668	     82.51481148	    -10.68404188	     87.07984399	    124.08743168	     60.80637658
      8.73333330	    -12.61531217	     13.42555477	     25.45700586	      1.52857600	      0.77483233	     -0.08743654	     88.43236730	    -25.91023487	     31.52178952	     41.95252086	      0.73220962	     -1.60324861	     15.66159749	     -7.49999987	     57.89847325	     23.16471169	    -11.71393442	     81.15696346	      1.41645622	     24.69597203	     -2.93034621	     -7.49999987	    -25.94899667	    -29.25996088	    -27.31405622	     50.61515472	     15.54301402	     53.90417832	    107.16460925	     72.84463446	     82.27465818	    -11.03461861	     87.14103556	    124.26624370	     60.65511937
      8.75000000	    -12.68554966	     13.34849321	     25.65829447	      1.52418539	      0.77664862	     -0.08882355	     88.37691842	    -26.11137878	     31.51659969	     41.74842803	      0.72864753	     -1.73233970	     15.72399275	     -7.49999987	     57.84417891	     23.49004152	    -11.50895173	     81.05988923	      1.41476196	     24.91664086	     -3.26497338	     -7.49999987	    -25.94373676	    -29.10849679	    -27.35331460	     50.85988650	     15.54644599	     53.68557215	    106.88777347	     72.84463870	     82.35452535	    -11.05192069	     87.14747176	    124.18973505	     60.62221327
      8.76666670	    -12.30890983	     13.33069223	     25.82974217	      1.52441154	      0.77915148	     -0.09006225	     87.78015951	    -26.54010097	     30.99813323	     41.43127125	      0.72311210	     -1.97610155	     16.12107846	     -7.49999987	     57.29802988	     23.88592591	    -11.14177736	     80.80738409	      1.41035491	     24.59254213	     -4.54868551	     -7.49999987	    -26.22352791	    -28.71472047	    -27.80981811	     51.16642595	     15.56708820	     53.89134648	    106.61097083	     71.79282126	     82.40732598	    -11.22720134	     87.08686819	    124.27959903	     60.46313131
